# Blender v3.0.0 OBJ File: 'skyClock.blend'
# www.blender.org
mtllib Mesh_SkyClock_PointerL.mtl
o Mesh_SkyClock_PointerL_Sphere.001
v 4.999959 250.000000 0.000030
v 4.999959 245.196320 -48.772068
v 4.999959 230.969879 -95.669884
v 4.999959 207.867401 -138.891098
v 4.999959 176.776688 -176.774902
v 4.999959 138.892563 -207.865280
v 4.999960 95.670853 -230.967575
v -5.000040 95.670853 -230.967575
v -5.000041 138.892563 -207.865280
v -5.000041 176.776688 -176.774902
v -5.000041 207.867401 -138.891098
v -5.000041 230.969879 -95.669884
v -5.000041 245.196320 -48.772068
v -5.000041 250.000000 0.000030
v 4.999959 243.750000 0.000029
v 4.999959 239.066406 -47.552769
v 4.999959 225.195633 -93.278130
v 4.999959 202.670731 -135.418839
v 4.999959 172.357269 -172.355530
v 4.999959 135.420242 -202.668655
v 4.999960 93.279076 -225.193390
v -5.000040 93.279076 -225.193390
v -5.000041 135.420242 -202.668655
v -5.000041 172.357269 -172.355530
v -5.000041 202.670731 -135.418839
v -5.000041 225.195633 -93.278130
v -5.000041 239.066406 -47.552769
v -5.000041 243.750000 0.000029
v 0.000000 240.259338 -9.740663
v 0.000000 259.740662 -9.740663
v 1.900309 240.259338 -9.553498
v 1.900309 259.740662 -9.553498
v 3.727591 240.259338 -8.999199
v 3.727591 259.740662 -8.999199
v 5.411623 240.259338 -8.099065
v 5.411623 259.740662 -8.099065
v 6.887689 240.259338 -6.887689
v 6.887689 259.740662 -6.887689
v 8.099065 240.259338 -5.411623
v 8.099065 259.740662 -5.411623
v 8.999199 240.259338 -3.727590
v 8.999199 259.740662 -3.727590
v 9.553498 240.259338 -1.900309
v 9.553498 259.740662 -1.900309
v 9.740663 240.259338 0.000000
v 9.740663 259.740662 0.000000
v 9.553498 240.259338 1.900309
v 9.553498 259.740662 1.900309
v 8.999200 240.259338 3.727590
v 8.999200 259.740662 3.727590
v 8.099066 240.259338 5.411622
v 8.099066 259.740662 5.411622
v 6.887689 240.259338 6.887689
v 6.887689 259.740662 6.887689
v 5.411622 240.259338 8.099066
v 5.411622 259.740662 8.099066
v 3.727591 240.259338 8.999199
v 3.727591 259.740662 8.999199
v 1.900309 240.259338 9.553499
v 1.900309 259.740662 9.553499
v -0.000001 240.259338 9.740663
v -0.000001 259.740662 9.740663
v -1.900308 240.259338 9.553499
v -1.900308 259.740662 9.553499
v -3.727590 240.259338 8.999199
v -3.727590 259.740662 8.999199
v -5.411623 240.259338 8.099065
v -5.411623 259.740662 8.099065
v -6.887688 240.259338 6.887689
v -6.887688 259.740662 6.887689
v -8.099064 240.259338 5.411624
v -8.099064 259.740662 5.411624
v -8.999199 240.259338 3.727592
v -8.999199 259.740662 3.727592
v -9.553498 240.259338 1.900310
v -9.553498 259.740662 1.900310
v -9.740663 240.259338 -0.000000
v -9.740663 259.740662 -0.000000
v -9.553498 240.259338 -1.900310
v -9.553498 259.740662 -1.900310
v -8.999198 240.259338 -3.727592
v -8.999198 259.740662 -3.727592
v -8.099066 240.259338 -5.411621
v -8.099066 259.740662 -5.411621
v -6.887690 240.259338 -6.887688
v -6.887690 259.740662 -6.887688
v -5.411623 240.259338 -8.099065
v -5.411623 259.740662 -8.099065
v -3.727590 240.259338 -8.999200
v -3.727590 259.740662 -8.999200
v -1.900308 240.259338 -9.553499
v -1.900308 259.740662 -9.553499
v 4.999960 47.553272 -239.063995
v -5.000040 48.772587 -245.193832
v 4.999960 48.772587 -245.193832
v -5.000040 47.553272 -239.063995
v -17.008293 69.866318 -238.925201
v -17.008293 68.647003 -232.795364
v 17.008213 69.866318 -238.925201
v 17.008213 68.647003 -232.795364
v 4.999960 69.801239 -238.814941
v -5.000040 69.801239 -238.814941
v 4.999960 68.056206 -232.844574
v -5.000040 68.056206 -232.844574
v 0.617115 36.343376 -241.293808
v 0.617115 37.562691 -247.423645
v -0.617196 36.343376 -241.293808
v -0.617196 37.562691 -247.423645
vt 0.014154 0.547004
vt 0.014452 0.421233
vt 0.001654 0.421166
vt 0.000909 0.546921
vt 0.016210 0.810594
vt 0.013764 0.677082
vt 0.000025 0.677059
vt 0.000357 0.812534
vt 0.016348 0.146123
vt 0.018456 0.115779
vt 0.028833 0.000025
vt 0.017179 0.082055
vt 0.014562 0.299714
vt 0.002241 0.299656
vt 0.027325 0.875269
vt 0.034493 0.999975
vt 0.013755 0.183453
vt 0.002842 0.182969
vt 0.029916 0.299719
vt 0.027506 0.183392
vt 0.061003 0.677048
vt 0.044190 0.677184
vt 0.041460 0.810437
vt 0.061003 0.812251
vt 0.034811 0.873144
vt 0.030903 0.871085
vt 0.030415 0.809927
vt 0.040740 0.080986
vt 0.032965 0.145674
vt 0.038117 0.182690
vt 0.055388 0.180585
vt 0.030775 0.677135
vt 0.042058 0.299670
vt 0.057306 0.299433
vt 0.030627 0.547038
vt 0.042943 0.421235
vt 0.058633 0.421051
vt 0.030371 0.421250
vt 0.043636 0.547037
vt 0.059869 0.546864
vt 0.028999 0.117770
vt 0.028833 0.000025
vt 0.028999 0.117770
vt 0.750000 0.490000
vt 0.796822 0.485388
vt 0.841844 0.471731
vt 0.883337 0.449553
vt 0.919706 0.419706
vt 0.949553 0.383337
vt 0.971731 0.341844
vt 0.985388 0.296822
vt 0.990000 0.250000
vt 0.985388 0.203178
vt 0.971731 0.158156
vt 0.949553 0.116663
vt 0.919706 0.080294
vt 0.883337 0.050447
vt 0.841844 0.028269
vt 0.796822 0.014612
vt 0.750000 0.010000
vt 0.703178 0.014612
vt 0.658156 0.028269
vt 0.616663 0.050447
vt 0.580294 0.080294
vt 0.550447 0.116663
vt 0.528269 0.158156
vt 0.514612 0.203178
vt 0.510000 0.250000
vt 0.514612 0.296822
vt 0.528269 0.341844
vt 0.550447 0.383337
vt 0.580294 0.419706
vt 0.616663 0.449553
vt 0.658156 0.471731
vt 0.703178 0.485388
vt 0.028833 0.000025
vt 0.028999 0.117770
vt 0.028833 0.000025
vt 0.025810 0.147966
vt 0.028999 0.117770
vt 0.028833 0.000025
vt 0.028999 0.117770
vt 0.018456 0.115779
vt 0.024388 0.119218
vt 0.028999 0.117770
vt 0.028833 0.000025
vt 0.024388 0.119218
vt 1.000000 0.500000
vt 1.000000 1.000000
vt 0.968750 1.000000
vt 0.968750 0.500000
vt 0.937500 1.000000
vt 0.937500 0.500000
vt 0.906250 1.000000
vt 0.906250 0.500000
vt 0.875000 1.000000
vt 0.875000 0.500000
vt 0.843750 1.000000
vt 0.843750 0.500000
vt 0.812500 1.000000
vt 0.812500 0.500000
vt 0.781250 1.000000
vt 0.781250 0.500000
vt 0.750000 1.000000
vt 0.750000 0.500000
vt 0.718750 1.000000
vt 0.718750 0.500000
vt 0.687500 1.000000
vt 0.687500 0.500000
vt 0.656250 1.000000
vt 0.656250 0.500000
vt 0.625000 1.000000
vt 0.625000 0.500000
vt 0.593750 1.000000
vt 0.593750 0.500000
vt 0.562500 1.000000
vt 0.562500 0.500000
vt 0.531250 1.000000
vt 0.531250 0.500000
vt 0.500000 1.000000
vt 0.500000 0.500000
vt 0.468750 1.000000
vt 0.468750 0.500000
vt 0.437500 1.000000
vt 0.437500 0.500000
vt 0.406250 1.000000
vt 0.406250 0.500000
vt 0.375000 1.000000
vt 0.375000 0.500000
vt 0.343750 1.000000
vt 0.343750 0.500000
vt 0.312500 1.000000
vt 0.312500 0.500000
vt 0.281250 1.000000
vt 0.281250 0.500000
vt 0.250000 1.000000
vt 0.250000 0.500000
vt 0.218750 1.000000
vt 0.218750 0.500000
vt 0.187500 1.000000
vt 0.187500 0.500000
vt 0.156250 1.000000
vt 0.156250 0.500000
vt 0.125000 1.000000
vt 0.125000 0.500000
vt 0.093750 1.000000
vt 0.093750 0.500000
vt 0.062500 1.000000
vt 0.062500 0.500000
vt 0.031250 1.000000
vt 0.031250 0.500000
vt 0.000000 1.000000
vt 0.000000 0.500000
vn 0.0000 0.7730 -0.6344
vn 0.0000 0.9569 -0.2903
vn 0.0000 0.2903 -0.9569
vn 0.0000 0.6344 -0.7730
vn 0.0000 0.8819 -0.4714
vn 0.0000 0.9952 -0.0980
vn 0.0000 0.4714 -0.8819
vn 1.0000 -0.0000 0.0000
vn -1.0000 -0.0000 0.0000
vn 0.0000 -0.0000 1.0000
vn -0.9337 -0.3512 -0.0699
vn 0.0000 -1.0000 0.0000
vn 0.0259 0.9710 0.2379
vn 0.0104 0.2903 -0.9569
vn -0.8769 -0.4714 -0.0938
vn -0.0259 0.9710 0.2379
vn 0.8769 -0.4714 -0.0938
vn -0.0104 0.2903 -0.9569
vn 0.0000 -0.9808 -0.1951
vn 0.0000 0.1951 -0.9808
vn 0.9337 -0.3512 -0.0699
vn 0.7298 -0.5684 0.3798
vn -0.7298 -0.5684 0.3798
vn -0.7298 -0.4834 0.4834
vn 0.7298 -0.4834 0.4834
vn 0.7298 -0.6705 0.1334
vn -0.7298 -0.6705 0.1334
vn -0.7298 -0.6316 0.2616
vn 0.7298 -0.6316 0.2616
vn 0.3013 0.0258 0.9532
vn -0.3013 0.0258 0.9532
vn -0.6281 -0.4659 0.6232
vn 0.6281 -0.4659 0.6232
vn -0.7298 -0.3798 0.5684
vn 0.7298 -0.3798 0.5684
vn 0.5827 -0.5458 0.6022
vn -0.5827 -0.5458 0.6022
vn -0.7298 -0.2616 0.6316
vn 0.7298 -0.2616 0.6316
vn 0.6935 0.2889 0.6599
vn 0.0000 -0.6857 -0.7279
vn 0.0000 0.0000 -1.0000
vn 0.1951 0.0000 -0.9808
vn 0.1420 -0.6857 -0.7139
vn 0.3827 0.0000 -0.9239
vn 0.2785 -0.6857 -0.6725
vn 0.5556 0.0000 -0.8314
vn 0.4044 -0.6857 -0.6052
vn 0.7071 0.0000 -0.7071
vn 0.5147 -0.6857 -0.5147
vn 0.8314 0.0000 -0.5556
vn 0.6052 -0.6857 -0.4044
vn 0.9239 0.0000 -0.3827
vn 0.6725 -0.6857 -0.2785
vn 0.9808 0.0000 -0.1951
vn 0.7139 -0.6857 -0.1420
vn 0.7279 -0.6857 0.0000
vn 0.9808 0.0000 0.1951
vn 0.7139 -0.6857 0.1420
vn 0.9239 0.0000 0.3827
vn 0.6725 -0.6857 0.2785
vn 0.8314 0.0000 0.5556
vn 0.6052 -0.6857 0.4044
vn 0.7071 0.0000 0.7071
vn 0.5147 -0.6857 0.5147
vn 0.5556 0.0000 0.8314
vn 0.4044 -0.6857 0.6052
vn 0.3827 0.0000 0.9239
vn 0.2785 -0.6857 0.6725
vn 0.1951 0.0000 0.9808
vn 0.1420 -0.6857 0.7139
vn 0.0000 -0.6857 0.7279
vn -0.1951 0.0000 0.9808
vn -0.1420 -0.6857 0.7139
vn -0.3827 0.0000 0.9239
vn -0.2785 -0.6857 0.6725
vn -0.5556 0.0000 0.8314
vn -0.4044 -0.6857 0.6052
vn -0.7071 0.0000 0.7071
vn -0.5147 -0.6857 0.5147
vn -0.8314 0.0000 0.5556
vn -0.6052 -0.6857 0.4044
vn -0.9239 0.0000 0.3827
vn -0.6725 -0.6857 0.2785
vn -0.9808 0.0000 0.1951
vn -0.7139 -0.6857 0.1420
vn -0.7279 -0.6857 0.0000
vn -0.9808 0.0000 -0.1951
vn -0.7139 -0.6857 -0.1420
vn -0.9239 0.0000 -0.3827
vn -0.6725 -0.6857 -0.2785
vn -0.8314 0.0000 -0.5556
vn -0.6052 -0.6857 -0.4044
vn -0.7071 0.0000 -0.7071
vn -0.5147 -0.6857 -0.5147
vn -0.5556 0.0000 -0.8314
vn -0.4044 -0.6857 -0.6052
vn -0.3827 0.0000 -0.9239
vn -0.2785 -0.6857 -0.6725
vn -0.1951 0.0000 -0.9808
vn -0.1420 -0.6857 -0.7139
vn -0.6935 0.2889 0.6599
vn -0.4536 -0.7640 0.4588
vn 0.4536 -0.7640 0.4588
usemtl b
s off
f 4/1/1 5/2/1 10/3/1 11/4/1
f 2/5/2 3/6/2 12/7/2 13/8/2
f 101/9/3 95/10/3 94/11/3 102/12/3
f 5/2/4 6/13/4 9/14/4 10/3/4
f 3/6/5 4/1/5 11/4/5 12/7/5
f 1/15/6 2/5/6 13/8/6 14/16/6
f 6/13/7 7/17/7 8/18/7 9/14/7
f 6/13/8 20/19/8 21/20/8 7/17/8
f 12/21/9 26/22/9 27/23/9 13/24/9
f 13/24/9 27/23/9 28/25/9 14/16/9
f 1/15/8 15/26/8 16/27/8 2/5/8
f 14/16/10 28/25/10 15/26/10 1/15/10
f 102/28/9 104/29/9 22/30/9 8/31/9
f 2/5/8 16/27/8 17/32/8 3/6/8
f 8/31/9 22/30/9 23/33/9 9/34/9
f 3/6/8 17/32/8 18/35/8 4/1/8
f 9/34/9 23/33/9 24/36/9 10/37/9
f 4/1/8 18/35/8 19/38/8 5/2/8
f 10/37/9 24/36/9 25/39/9 11/40/9
f 5/2/8 19/38/8 20/19/8 6/13/8
f 96/41/11 94/11/11 108/42/11 107/43/11
f 11/40/9 25/39/9 26/22/9 12/21/9
f 29/44/12 31/45/12 33/46/12 35/47/12 37/48/12 39/49/12 41/50/12 43/51/12 45/52/12 47/53/12 49/54/12 51/55/12 53/56/12 55/57/12 57/58/12 59/59/12 61/60/12 63/61/12 65/62/12 67/63/12 69/64/12 71/65/12 73/66/12 75/67/12 77/68/12 79/69/12 81/70/12 83/71/12 85/72/12 87/73/12 89/74/12 91/75/12
f 102/28/13 97/76/13 98/77/13 104/29/13
f 102/12/14 94/11/14 97/76/14
f 94/11/15 96/41/15 98/77/15 97/76/15
f 99/78/16 101/9/16 103/79/16 100/80/16
f 95/81/17 99/78/17 100/80/17 93/82/17
f 101/9/18 99/78/18 95/10/18
f 7/17/8 21/20/8 103/79/8 101/9/8
f 7/17/3 101/9/3 102/12/3 8/18/3
f 106/83/19 105/84/19 107/43/19 108/42/19
f 94/11/20 95/10/20 106/83/20 108/42/20
f 95/81/21 93/82/21 105/85/21 106/86/21
s 1
f 18/35/22 25/39/23 24/36/24 19/38/25
f 16/27/26 27/23/27 26/22/28 17/32/29
f 103/79/30 104/29/31 96/41/32 93/87/33
f 19/38/25 24/36/24 23/33/34 20/19/35
f 17/32/29 26/22/28 25/39/23 18/35/22
f 15/26/36 28/25/37 27/23/27 16/27/26
f 20/19/35 23/33/34 22/30/38 21/20/39
f 100/80/40 103/79/30 93/82/33
f 29/88/41 30/89/42 32/90/43 31/91/44
f 31/91/44 32/90/43 34/92/45 33/93/46
f 33/93/46 34/92/45 36/94/47 35/95/48
f 35/95/48 36/94/47 38/96/49 37/97/50
f 37/97/50 38/96/49 40/98/51 39/99/52
f 39/99/52 40/98/51 42/100/53 41/101/54
f 41/101/54 42/100/53 44/102/55 43/103/56
f 43/103/56 44/102/55 46/104/8 45/105/57
f 45/105/57 46/104/8 48/106/58 47/107/59
f 47/107/59 48/106/58 50/108/60 49/109/61
f 49/109/61 50/108/60 52/110/62 51/111/63
f 51/111/63 52/110/62 54/112/64 53/113/65
f 53/113/65 54/112/64 56/114/66 55/115/67
f 55/115/67 56/114/66 58/116/68 57/117/69
f 57/117/69 58/116/68 60/118/70 59/119/71
f 59/119/71 60/118/70 62/120/10 61/121/72
f 61/121/72 62/120/10 64/122/73 63/123/74
f 63/123/74 64/122/73 66/124/75 65/125/76
f 65/125/76 66/124/75 68/126/77 67/127/78
f 67/127/78 68/126/77 70/128/79 69/129/80
f 69/129/80 70/128/79 72/130/81 71/131/82
f 71/131/82 72/130/81 74/132/83 73/133/84
f 73/133/84 74/132/83 76/134/85 75/135/86
f 75/135/86 76/134/85 78/136/9 77/137/87
f 77/137/87 78/136/9 80/138/88 79/139/89
f 79/139/89 80/138/88 82/140/90 81/141/91
f 81/141/91 82/140/90 84/142/92 83/143/93
f 83/143/93 84/142/92 86/144/94 85/145/95
f 85/145/95 86/144/94 88/146/96 87/147/97
f 87/147/97 88/146/96 90/148/98 89/149/99
f 89/149/99 90/148/98 92/150/100 91/151/101
f 91/151/101 92/150/100 30/152/42 29/153/41
f 98/77/102 96/41/32 104/29/31
f 21/20/39 22/30/38 104/29/31 103/79/30
f 93/87/33 96/41/32 107/43/103 105/84/104
