# Blender v3.0.0 OBJ File: 'skyClock.blend'
# www.blender.org
mtllib Mesh_SkyClock_PointerL.mtl
o Mesh_SkyClock_PointerL_Sphere.001
v 2.499980 250.000000 0.000030
v 2.499980 245.196320 -48.772068
v 2.499980 230.969879 -95.669884
v 2.499980 207.867401 -138.891098
v 2.499980 176.776688 -176.774902
v 2.499980 138.892563 -207.865280
v 2.499980 95.670853 -230.967575
v 2.499980 48.772587 -245.193832
v -2.500020 48.772587 -245.193832
v -2.500020 95.670853 -230.967575
v -2.500020 138.892563 -207.865280
v -2.500020 176.776688 -176.774902
v -2.500020 207.867401 -138.891098
v -2.500020 230.969879 -95.669884
v -2.500020 245.196320 -48.772068
v -2.500020 250.000000 0.000030
v 2.499980 243.750000 0.000029
v 2.499980 239.066406 -47.552769
v 2.499980 225.195633 -93.278130
v 2.499980 202.670731 -135.418839
v 2.499980 172.357269 -172.355530
v 2.499980 135.420242 -202.668655
v 2.499980 93.279076 -225.193390
v 2.499980 47.553272 -239.063995
v -2.500020 47.553272 -239.063995
v -2.500020 93.279076 -225.193390
v -2.500020 135.420242 -202.668655
v -2.500020 172.357269 -172.355530
v -2.500020 202.670731 -135.418839
v -2.500020 225.195633 -93.278130
v -2.500020 239.066406 -47.552769
v -2.500020 243.750000 0.000029
vt 0.014154 0.547004
vt 0.014452 0.421233
vt 0.001654 0.421166
vt 0.000909 0.546921
vt 0.016210 0.810594
vt 0.013764 0.677082
vt 0.000025 0.677059
vt 0.000357 0.812534
vt 0.013755 0.183453
vt 0.018456 0.115779
vt 0.028833 0.000025
vt 0.002842 0.182969
vt 0.014562 0.299714
vt 0.002241 0.299656
vt 0.027325 0.875269
vt 0.034493 0.999975
vt 0.029916 0.299719
vt 0.027506 0.183392
vt 0.061003 0.677048
vt 0.044190 0.677184
vt 0.041460 0.810437
vt 0.061003 0.812251
vt 0.024388 0.119218
vt 0.034811 0.873144
vt 0.030903 0.871085
vt 0.030415 0.809927
vt 0.028999 0.117770
vt 0.038117 0.182690
vt 0.055388 0.180585
vt 0.030775 0.677135
vt 0.042058 0.299670
vt 0.057306 0.299433
vt 0.030627 0.547038
vt 0.042943 0.421235
vt 0.058633 0.421051
vt 0.030371 0.421250
vt 0.043636 0.547037
vt 0.059869 0.546864
vn 0.0000 0.7730 -0.6344
vn 0.0000 0.9569 -0.2903
vn 0.0000 0.2903 -0.9569
vn 0.0000 0.6344 -0.7730
vn 0.0000 0.8819 -0.4714
vn 0.0000 0.9952 -0.0980
vn 0.0000 0.4714 -0.8819
vn 1.0000 -0.0000 0.0000
vn -1.0000 -0.0000 0.0000
vn 0.0000 -0.0000 1.0000
vn 0.0000 -0.9808 -0.1951
vn 0.7298 -0.5684 0.3798
vn -0.7298 -0.5684 0.3798
vn -0.7298 -0.4834 0.4834
vn 0.7298 -0.4834 0.4834
vn 0.7298 -0.6705 0.1334
vn -0.7298 -0.6705 0.1334
vn -0.7298 -0.6316 0.2616
vn 0.7298 -0.6316 0.2616
vn 0.7298 -0.2616 0.6316
vn -0.7298 -0.2616 0.6316
vn -0.5827 -0.6970 0.4178
vn 0.5827 -0.6970 0.4178
vn -0.7298 -0.3798 0.5684
vn 0.7298 -0.3798 0.5684
vn 0.5827 -0.5458 0.6022
vn -0.5827 -0.5458 0.6022
usemtl b
s off
f 4/1/1 5/2/1 12/3/1 13/4/1
f 2/5/2 3/6/2 14/7/2 15/8/2
f 7/9/3 8/10/3 9/11/3 10/12/3
f 5/2/4 6/13/4 11/14/4 12/3/4
f 3/6/5 4/1/5 13/4/5 14/7/5
f 1/15/6 2/5/6 15/8/6 16/16/6
f 6/13/7 7/9/7 10/12/7 11/14/7
f 6/13/8 22/17/8 23/18/8 7/9/8
f 14/19/9 30/20/9 31/21/9 15/22/9
f 7/9/8 23/18/8 24/23/8 8/10/8
f 15/22/9 31/21/9 32/24/9 16/16/9
f 1/15/8 17/25/8 18/26/8 2/5/8
f 16/16/10 32/24/10 17/25/10 1/15/10
f 9/11/9 25/27/9 26/28/9 10/29/9
f 2/5/8 18/26/8 19/30/8 3/6/8
f 10/29/9 26/28/9 27/31/9 11/32/9
f 3/6/8 19/30/8 20/33/8 4/1/8
f 11/32/9 27/31/9 28/34/9 12/35/9
f 4/1/8 20/33/8 21/36/8 5/2/8
f 12/35/9 28/34/9 29/37/9 13/38/9
f 5/2/8 21/36/8 22/17/8 6/13/8
f 8/10/11 24/23/11 25/27/11 9/11/11
f 13/38/9 29/37/9 30/20/9 14/19/9
s 1
f 20/33/12 29/37/13 28/34/14 21/36/15
f 18/26/16 31/21/17 30/20/18 19/30/19
f 23/18/20 26/28/21 25/27/22 24/23/23
f 21/36/15 28/34/14 27/31/24 22/17/25
f 19/30/19 30/20/18 29/37/13 20/33/12
f 17/25/26 32/24/27 31/21/17 18/26/16
f 22/17/25 27/31/24 26/28/21 23/18/20
