# Blender v3.0.0 OBJ File: 'Clock.blend'
# www.blender.org
o Clock_Background_clock_low_Mesh.004
v 0.921029 2.221385 -0.456208
v 0.921837 2.089721 -0.890258
v 0.923150 1.875909 -1.290282
v 0.924916 1.588166 -1.640905
v 0.927069 1.237549 -1.928654
v 0.929526 0.837534 -2.142471
v 0.932191 0.403492 -2.274139
v 0.934961 -0.047897 -2.318598
v 0.937733 -0.499285 -2.274140
v 0.940398 -0.933327 -2.142472
v 0.942854 -1.333342 -1.928656
v 0.945007 -1.683960 -1.640907
v 0.946774 -1.971703 -1.290284
v 0.948086 -2.185517 -0.890261
v 0.948895 -2.317183 -0.456211
v 0.949167 -2.361641 -0.004814
v 0.948895 -2.317183 0.446584
v 0.948086 -2.185519 0.880634
v 0.946773 -1.971706 1.280657
v 0.945007 -1.683963 1.631281
v 0.942854 -1.333346 1.919031
v 0.940398 -0.933331 2.132848
v 0.937732 -0.499288 2.264515
v 0.934962 -0.047900 2.308974
v 0.932190 0.403489 2.264516
v 0.929525 0.837531 2.132849
v 0.927069 1.237548 1.919031
v 0.924916 1.588165 1.631283
v 0.923150 1.875910 1.280660
v 0.921837 2.089723 0.880636
v 0.921029 2.221389 0.446585
v 0.920756 2.265846 -0.004812
v 0.934961 -0.047898 -0.004813
vt 0.549535 0.408082
vt 0.668249 0.383994
vt 0.670575 0.408082
vt 0.661361 0.360831
vt 0.650176 0.339484
vt 0.635123 0.320774
vt 0.616781 0.305418
vt 0.595855 0.294008
vt 0.573149 0.286982
vt 0.549535 0.284609
vt 0.525922 0.286981
vt 0.503215 0.294008
vt 0.482289 0.305418
vt 0.463947 0.320773
vt 0.448894 0.339484
vt 0.437709 0.360831
vt 0.430821 0.383994
vt 0.428495 0.408082
vt 0.430821 0.432171
vt 0.437709 0.455334
vt 0.448894 0.476681
vt 0.463947 0.495391
vt 0.482289 0.510747
vt 0.503215 0.522157
vt 0.525921 0.529183
vt 0.549535 0.531556
vt 0.573149 0.529183
vt 0.595855 0.522157
vt 0.616781 0.510747
vt 0.635123 0.495391
vt 0.650176 0.476681
vt 0.661362 0.455334
vt 0.668249 0.432171
vn 1.0000 0.0061 0.0000
s 1
f 33/1/1 1/2/1 32/3/1
f 33/1/1 2/4/1 1/2/1
f 33/1/1 3/5/1 2/4/1
f 33/1/1 4/6/1 3/5/1
f 33/1/1 5/7/1 4/6/1
f 33/1/1 6/8/1 5/7/1
f 33/1/1 7/9/1 6/8/1
f 33/1/1 8/10/1 7/9/1
f 33/1/1 9/11/1 8/10/1
f 33/1/1 10/12/1 9/11/1
f 33/1/1 11/13/1 10/12/1
f 33/1/1 12/14/1 11/13/1
f 33/1/1 13/15/1 12/14/1
f 33/1/1 14/16/1 13/15/1
f 33/1/1 15/17/1 14/16/1
f 33/1/1 16/18/1 15/17/1
f 33/1/1 17/19/1 16/18/1
f 33/1/1 18/20/1 17/19/1
f 33/1/1 19/21/1 18/20/1
f 33/1/1 20/22/1 19/21/1
f 33/1/1 21/23/1 20/22/1
f 33/1/1 22/24/1 21/23/1
f 33/1/1 23/25/1 22/24/1
f 33/1/1 24/26/1 23/25/1
f 33/1/1 25/27/1 24/26/1
f 33/1/1 26/28/1 25/27/1
f 33/1/1 27/29/1 26/28/1
f 33/1/1 28/30/1 27/29/1
f 33/1/1 29/31/1 28/30/1
f 33/1/1 30/32/1 29/31/1
f 33/1/1 31/33/1 30/32/1
f 33/1/1 32/3/1 31/33/1
